/* XPM */
static const char *nuticon[] = {
/* width height num_colors chars_per_pixel */
"    55    40        4            1",
/* colors */
". c #000000",
"# c #5454ff",
"a c #ff0000",
"b c #ff00ff",
/* pixels */
"#######################################################",
"##########.......##########################aaaaaaa#####",
"##########aaaaaaa##########################aaaaaaa#####",
"##########aaaaaaa##########################aaaaaaa#####",
"#########aaaaaaaa##########################aaaaaaaa####",
"#########aaaaaaaa#########################.aaaaaaaa####",
"#########aaaaaaaa.########################aaaaaaaaa####",
"#########aaaaaaaaa########################aaaaaaaaa####",
"########.aaaaaaaaa########################aaaaaaaaa####",
"########aaaaaaaaaa########################aaaaaaaaa.###",
"########aaaaaaaaaa########################aaaaaaaaaa###",
"########aaaaaaaaaa#######################.aaaaaaaaaa###",
"########aaaaaaaaaaa######################aaaaaaaaaaa###",
"#######aaaaaaaaaaaa######################aaaaaaaaaaa###",
"#######aaaaaaaaaaaa######################aaaaaaaaaaa###",
"#######aaaaaaaaaaaa######################aaaaaaaaaaa.##",
"#######aaaaaaaaaaaa######################aaaaaaaaaaaa##",
"#######aaaaaaaaaaaa.####################aaaaaaaaaaaaa##",
"######aaaaaaaaaaaaaa####################aaaaaaaaaaaaa##",
"######aaaaaaaaaaaaaa####################aaaaaaaaaaaaa##",
"######aaaaaaaaaaaaaa####################aaaaaaaaaaaaa##",
"######aaaaaaaaaaaaaa####################aaaaaaaaaaaaa.#",
"#####aaaaaaaaaaaaaaa###################.aaaaaaaaaaaaaa#",
"#####aaaaaaaaaaaaaaaa##################aaaaaaaaaaaaaaa#",
"#####aaaaaaaaaaaaaaaa##################aaaaaaaaaaaaaaa#",
"#####aaaaaaaaaaaaaaaa##################aaaaaaaaaaaaaaa#",
"####.aaaaaaaaaaaaaaaa##################aaaaaaaaaaaaaaa.",
"####aaaaaaaaaaaaaaaaa##################aaaaaaaaaaaaaaaa",
"####aaaaaaaaaaaaaaaaa#################.aaaaaaaaaaaaaaaa",
"####aaaaaaaaaaaaaaaaa.################aaaaaaaaaaaaaaaaa",
"####aaaaaaaaaaaaaaaaaa################aaaaaaaaaaaaaaaaa",
"###.aaaaaaaaaaaaaaaaaa################aaaaaaaaaaaaaaaaa",
"######################abbbbbbbbbbbbbba#################",
"######################abbbbbbbbbbbbbba#################",
"######################abbbbbbbbbbbbbb.#################",
"#######################bbbbbbbbbbbbbb##################",
"#######################bbbbbbbbbbbbbb##################",
"#######################bbbbbbbbbbbbbb##################",
"#######################bbbbbbbbbbbbbb##################",
"#######################################################"
};
